{"asset":{"version":"2.0","generator":"Blockbench 4.10.4 glTF exporter"},"scenes":[{"nodes":[15],"name":"blockbench_export"}],"scene":0,"nodes":[{"translation":[0,0,0.3750000000000001],"name":"plane","mesh":0},{"translation":[0.5,0.05625,-0.5500000000000004],"name":"cuboid","mesh":1},{"translation":[0,0.1875625,0.15000000000000016],"name":"plane","mesh":2},{"translation":[-0.018750000000000003,-0.18750000000000003,-0.2687500000000004],"name":"object","mesh":3},{"translation":[-0.05625,-0.16875,-0.3500000000000002],"name":"object","mesh":4},{"translation":[0.025,-0.1625,-0.3500000000000002],"name":"object","mesh":5},{"rotation":[0,0,0.7071067811865475,0.7071067811865476],"translation":[0.3999999999999999,0.10625000000000004,-0.36250000000000016],"name":"object","mesh":6},{"translation":[0.28749999999999987,-0.1625,-0.3750000000000001],"name":"object","mesh":7},{"translation":[0.2999999999999998,-0.16875,-0.721875],"name":"object","mesh":8},{"translation":[0.3937499999999995,-0.1625,-0.3750000000000001],"name":"object","mesh":9},{"translation":[0.4249999999999994,-0.1625,-0.4937499999999997],"name":"object","mesh":10},{"translation":[0.3687499999999996,-0.1625,-0.5874999999999995],"name":"object","mesh":11},{"translation":[0.3687499999999996,-0.1625,-0.6874999999999991],"name":"object","mesh":12},{"translation":[-0.08750000000000005,-0.1625,-0.721875],"name":"object","mesh":13},{"rotation":[0,0,-0.21217767215644626,0.9772311064626789],"translation":[-0.021875,-0.1475,-0.7843749999999998],"name":"object","mesh":14},{"children":[0,1,2,3,4,5,6,7,8,9,10,11,12,13,14]}],"bufferViews":[{"buffer":0,"byteOffset":0,"byteLength":432,"target":34962,"byteStride":12},{"buffer":0,"byteOffset":432,"byteLength":432,"target":34962,"byteStride":12},{"buffer":0,"byteOffset":864,"byteLength":288,"target":34962,"byteStride":8},{"buffer":0,"byteOffset":1152,"byteLength":108,"target":34963},{"buffer":0,"byteOffset":1260,"byteLength":5184,"target":34962,"byteStride":12},{"buffer":0,"byteOffset":6444,"byteLength":5184,"target":34962,"byteStride":12},{"buffer":0,"byteOffset":11628,"byteLength":3456,"target":34962,"byteStride":8},{"buffer":0,"byteOffset":15084,"byteLength":1296,"target":34963},{"buffer":0,"byteOffset":16380,"byteLength":288,"target":34962,"byteStride":12},{"buffer":0,"byteOffset":16668,"byteLength":288,"target":34962,"byteStride":12},{"buffer":0,"byteOffset":16956,"byteLength":192,"target":34962,"byteStride":8},{"buffer":0,"byteOffset":17148,"byteLength":72,"target":34963},{"buffer":0,"byteOffset":17220,"byteLength":288,"target":34962,"byteStride":12},{"buffer":0,"byteOffset":17508,"byteLength":288,"target":34962,"byteStride":12},{"buffer":0,"byteOffset":17796,"byteLength":192,"target":34962,"byteStride":8},{"buffer":0,"byteOffset":17988,"byteLength":72,"target":34963},{"buffer":0,"byteOffset":18060,"byteLength":288,"target":34962,"byteStride":12},{"buffer":0,"byteOffset":18348,"byteLength":288,"target":34962,"byteStride":12},{"buffer":0,"byteOffset":18636,"byteLength":192,"target":34962,"byteStride":8},{"buffer":0,"byteOffset":18828,"byteLength":72,"target":34963},{"buffer":0,"byteOffset":18900,"byteLength":288,"target":34962,"byteStride":12},{"buffer":0,"byteOffset":19188,"byteLength":288,"target":34962,"byteStride":12},{"buffer":0,"byteOffset":19476,"byteLength":192,"target":34962,"byteStride":8},{"buffer":0,"byteOffset":19668,"byteLength":72,"target":34963},{"buffer":0,"byteOffset":19740,"byteLength":288,"target":34962,"byteStride":12},{"buffer":0,"byteOffset":20028,"byteLength":288,"target":34962,"byteStride":12},{"buffer":0,"byteOffset":20316,"byteLength":192,"target":34962,"byteStride":8},{"buffer":0,"byteOffset":20508,"byteLength":72,"target":34963},{"buffer":0,"byteOffset":20580,"byteLength":288,"target":34962,"byteStride":12},{"buffer":0,"byteOffset":20868,"byteLength":288,"target":34962,"byteStride":12},{"buffer":0,"byteOffset":21156,"byteLength":192,"target":34962,"byteStride":8},{"buffer":0,"byteOffset":21348,"byteLength":72,"target":34963},{"buffer":0,"byteOffset":21420,"byteLength":288,"target":34962,"byteStride":12},{"buffer":0,"byteOffset":21708,"byteLength":288,"target":34962,"byteStride":12},{"buffer":0,"byteOffset":21996,"byteLength":192,"target":34962,"byteStride":8},{"buffer":0,"byteOffset":22188,"byteLength":72,"target":34963},{"buffer":0,"byteOffset":22260,"byteLength":288,"target":34962,"byteStride":12},{"buffer":0,"byteOffset":22548,"byteLength":288,"target":34962,"byteStride":12},{"buffer":0,"byteOffset":22836,"byteLength":192,"target":34962,"byteStride":8},{"buffer":0,"byteOffset":23028,"byteLength":72,"target":34963},{"buffer":0,"byteOffset":23100,"byteLength":288,"target":34962,"byteStride":12},{"buffer":0,"byteOffset":23388,"byteLength":288,"target":34962,"byteStride":12},{"buffer":0,"byteOffset":23676,"byteLength":192,"target":34962,"byteStride":8},{"buffer":0,"byteOffset":23868,"byteLength":72,"target":34963},{"buffer":0,"byteOffset":23940,"byteLength":288,"target":34962,"byteStride":12},{"buffer":0,"byteOffset":24228,"byteLength":288,"target":34962,"byteStride":12},{"buffer":0,"byteOffset":24516,"byteLength":192,"target":34962,"byteStride":8},{"buffer":0,"byteOffset":24708,"byteLength":72,"target":34963},{"buffer":0,"byteOffset":24780,"byteLength":288,"target":34962,"byteStride":12},{"buffer":0,"byteOffset":25068,"byteLength":288,"target":34962,"byteStride":12},{"buffer":0,"byteOffset":25356,"byteLength":192,"target":34962,"byteStride":8},{"buffer":0,"byteOffset":25548,"byteLength":72,"target":34963},{"buffer":0,"byteOffset":25620,"byteLength":288,"target":34962,"byteStride":12},{"buffer":0,"byteOffset":25908,"byteLength":288,"target":34962,"byteStride":12},{"buffer":0,"byteOffset":26196,"byteLength":192,"target":34962,"byteStride":8},{"buffer":0,"byteOffset":26388,"byteLength":72,"target":34963},{"buffer":0,"byteOffset":26460,"byteLength":288,"target":34962,"byteStride":12},{"buffer":0,"byteOffset":26748,"byteLength":288,"target":34962,"byteStride":12},{"buffer":0,"byteOffset":27036,"byteLength":192,"target":34962,"byteStride":8},{"buffer":0,"byteOffset":27228,"byteLength":72,"target":34963}],"buffers":[{"byteLength":27300,"uri":"data:application/octet-stream;base64,"}],"accessors":[{"bufferView":0,"componentType":5126,"count":36,"max":[0.5,0.05624999850988388,0.125],"min":[-0.23749999701976776,-0.0062500000931322575,-1.2312500476837158],"type":"VEC3"},{"bufferView":1,"componentType":5126,"count":36,"max":[0,1,1],"min":[0,0,0],"type":"VEC3"},{"bufferView":2,"componentType":5126,"count":36,"max":[0.1875,0.1875],"min":[0,0],"type":"VEC2"},{"bufferView":3,"componentType":5123,"count":54,"max":[35],"min":[0],"type":"SCALAR"},{"bufferView":4,"componentType":5126,"count":432,"max":[0.0062500000931322575,0.13124999403953552,1.0625],"min":[-0.75,-0.05624999850988388,-0.3125],"type":"VEC3"},{"bufferView":5,"componentType":5126,"count":432,"max":[1,1,1],"min":[-1,-1,-1],"type":"VEC3"},{"bufferView":6,"componentType":5126,"count":432,"max":[0.1875,0.1875],"min":[0,0],"type":"VEC2"},{"bufferView":7,"componentType":5123,"count":648,"max":[431],"min":[0],"type":"SCALAR"},{"bufferView":8,"componentType":5126,"count":24,"max":[0.5062500238418579,0,0.36250001192092896],"min":[-0.25,0,-1.0125000476837158],"type":"VEC3"},{"bufferView":9,"componentType":5126,"count":24,"max":[0,1,0],"min":[0,1,0],"type":"VEC3"},{"bufferView":10,"componentType":5126,"count":24,"max":[0.1875,0.1875],"min":[0,0],"type":"VEC2"},{"bufferView":11,"componentType":5123,"count":36,"max":[23],"min":[0],"type":"SCALAR"},{"bufferView":12,"componentType":5126,"count":24,"max":[0.012500000186264515,0.26249998807907104,0.01875000074505806],"min":[-0.012500000186264515,0.23749999701976776,-0.01875000074505806],"type":"VEC3"},{"bufferView":13,"componentType":5126,"count":24,"max":[1,1,1],"min":[-1,-1,-1],"type":"VEC3"},{"bufferView":14,"componentType":5126,"count":24,"max":[1,1],"min":[0,0],"type":"VEC2"},{"bufferView":15,"componentType":5123,"count":36,"max":[23],"min":[0],"type":"SCALAR"},{"bufferView":16,"componentType":5126,"count":24,"max":[0.012500000186264515,0.2750000059604645,0.01875000074505806],"min":[-0.012500000186264515,0.22499999403953552,-0.01875000074505806],"type":"VEC3"},{"bufferView":17,"componentType":5126,"count":24,"max":[1,1,1],"min":[-1,-1,-1],"type":"VEC3"},{"bufferView":18,"componentType":5126,"count":24,"max":[1,1],"min":[0,0],"type":"VEC2"},{"bufferView":19,"componentType":5123,"count":36,"max":[23],"min":[0],"type":"SCALAR"},{"bufferView":20,"componentType":5126,"count":24,"max":[0.012500000186264515,0.28125,0.01875000074505806],"min":[-0.012500000186264515,0.21875,-0.01875000074505806],"type":"VEC3"},{"bufferView":21,"componentType":5126,"count":24,"max":[1,1,1],"min":[-1,-1,-1],"type":"VEC3"},{"bufferView":22,"componentType":5126,"count":24,"max":[1,1],"min":[0,0],"type":"VEC2"},{"bufferView":23,"componentType":5123,"count":36,"max":[23],"min":[0],"type":"SCALAR"},{"bufferView":24,"componentType":5126,"count":24,"max":[0.012500000186264515,0.3187499940395355,0.0625],"min":[-0.012500000186264515,0.18125000596046448,-0.0625],"type":"VEC3"},{"bufferView":25,"componentType":5126,"count":24,"max":[1,1,1],"min":[-1,-1,-1],"type":"VEC3"},{"bufferView":26,"componentType":5126,"count":24,"max":[1,1],"min":[0,0],"type":"VEC2"},{"bufferView":27,"componentType":5123,"count":36,"max":[23],"min":[0],"type":"SCALAR"},{"bufferView":28,"componentType":5126,"count":24,"max":[0.02500000037252903,0.28125,0.07500000298023224],"min":[-0.02500000037252903,0.21875,-0.07500000298023224],"type":"VEC3"},{"bufferView":29,"componentType":5126,"count":24,"max":[1,1,1],"min":[-1,-1,-1],"type":"VEC3"},{"bufferView":30,"componentType":5126,"count":24,"max":[1,1],"min":[0,0],"type":"VEC2"},{"bufferView":31,"componentType":5123,"count":36,"max":[23],"min":[0],"type":"SCALAR"},{"bufferView":32,"componentType":5126,"count":24,"max":[0.012500000186264515,0.2750000059604645,0.12812499701976776],"min":[-0.012500000186264515,0.22499999403953552,-0.12812499701976776],"type":"VEC3"},{"bufferView":33,"componentType":5126,"count":24,"max":[1,1,1],"min":[-1,-1,-1],"type":"VEC3"},{"bufferView":34,"componentType":5126,"count":24,"max":[1,1],"min":[0,0],"type":"VEC2"},{"bufferView":35,"componentType":5123,"count":36,"max":[23],"min":[0],"type":"SCALAR"},{"bufferView":36,"componentType":5126,"count":24,"max":[0.01875000074505806,0.28125,0.01875000074505806],"min":[-0.01875000074505806,0.21875,-0.01875000074505806],"type":"VEC3"},{"bufferView":37,"componentType":5126,"count":24,"max":[1,1,1],"min":[-1,-1,-1],"type":"VEC3"},{"bufferView":38,"componentType":5126,"count":24,"max":[1,1],"min":[0,0],"type":"VEC2"},{"bufferView":39,"componentType":5123,"count":36,"max":[23],"min":[0],"type":"SCALAR"},{"bufferView":40,"componentType":5126,"count":24,"max":[0.01875000074505806,0.28125,0.01875000074505806],"min":[-0.01875000074505806,0.21875,-0.01875000074505806],"type":"VEC3"},{"bufferView":41,"componentType":5126,"count":24,"max":[1,1,1],"min":[-1,-1,-1],"type":"VEC3"},{"bufferView":42,"componentType":5126,"count":24,"max":[1,1],"min":[0,0],"type":"VEC2"},{"bufferView":43,"componentType":5123,"count":36,"max":[23],"min":[0],"type":"SCALAR"},{"bufferView":44,"componentType":5126,"count":24,"max":[0.01875000074505806,0.28125,0.01875000074505806],"min":[-0.01875000074505806,0.21875,-0.01875000074505806],"type":"VEC3"},{"bufferView":45,"componentType":5126,"count":24,"max":[1,1,1],"min":[-1,-1,-1],"type":"VEC3"},{"bufferView":46,"componentType":5126,"count":24,"max":[1,1],"min":[0,0],"type":"VEC2"},{"bufferView":47,"componentType":5123,"count":36,"max":[23],"min":[0],"type":"SCALAR"},{"bufferView":48,"componentType":5126,"count":24,"max":[0.01875000074505806,0.28125,0.01875000074505806],"min":[-0.01875000074505806,0.21875,-0.01875000074505806],"type":"VEC3"},{"bufferView":49,"componentType":5126,"count":24,"max":[1,1,1],"min":[-1,-1,-1],"type":"VEC3"},{"bufferView":50,"componentType":5126,"count":24,"max":[1,1],"min":[0,0],"type":"VEC2"},{"bufferView":51,"componentType":5123,"count":36,"max":[23],"min":[0],"type":"SCALAR"},{"bufferView":52,"componentType":5126,"count":24,"max":[0.10000000149011612,0.28125,0.12812499701976776],"min":[-0.10000000149011612,0.21875,-0.12812499701976776],"type":"VEC3"},{"bufferView":53,"componentType":5126,"count":24,"max":[1,1,1],"min":[-1,-1,-1],"type":"VEC3"},{"bufferView":54,"componentType":5126,"count":24,"max":[1,1],"min":[0,0],"type":"VEC2"},{"bufferView":55,"componentType":5123,"count":36,"max":[23],"min":[0],"type":"SCALAR"},{"bufferView":56,"componentType":5126,"count":24,"max":[0.08124999701976776,0.25562500953674316,0.06562499701976776],"min":[-0.08124999701976776,0.24437500536441803,-0.06562499701976776],"type":"VEC3"},{"bufferView":57,"componentType":5126,"count":24,"max":[1,1,1],"min":[-1,-1,-1],"type":"VEC3"},{"bufferView":58,"componentType":5126,"count":24,"max":[1,1],"min":[0,0],"type":"VEC2"},{"bufferView":59,"componentType":5123,"count":36,"max":[23],"min":[0],"type":"SCALAR"}],"materials":[{"pbrMetallicRoughness":{"metallicFactor":0,"roughnessFactor":1},"alphaMode":"MASK","alphaCutoff":0.05,"doubleSided":true},{"pbrMetallicRoughness":{"metallicFactor":0,"roughnessFactor":1},"alphaMode":"MASK","alphaCutoff":0.05,"doubleSided":true},{"pbrMetallicRoughness":{"metallicFactor":0,"roughnessFactor":1},"alphaMode":"MASK","alphaCutoff":0.05,"doubleSided":true},{"pbrMetallicRoughness":{"metallicFactor":0,"roughnessFactor":1},"alphaMode":"MASK","alphaCutoff":0.05,"doubleSided":true}],"meshes":[{"primitives":[{"mode":4,"attributes":{"POSITION":0,"NORMAL":1,"TEXCOORD_0":2},"indices":3,"material":0}]},{"primitives":[{"mode":4,"attributes":{"POSITION":4,"NORMAL":5,"TEXCOORD_0":6},"indices":7,"material":1}]},{"primitives":[{"mode":4,"attributes":{"POSITION":8,"NORMAL":9,"TEXCOORD_0":10},"indices":11,"material":2}]},{"primitives":[{"mode":4,"attributes":{"POSITION":12,"NORMAL":13,"TEXCOORD_0":14},"indices":15,"material":3}]},{"primitives":[{"mode":4,"attributes":{"POSITION":16,"NORMAL":17,"TEXCOORD_0":18},"indices":19,"material":3}]},{"primitives":[{"mode":4,"attributes":{"POSITION":20,"NORMAL":21,"TEXCOORD_0":22},"indices":23,"material":3}]},{"primitives":[{"mode":4,"attributes":{"POSITION":24,"NORMAL":25,"TEXCOORD_0":26},"indices":27,"material":3}]},{"primitives":[{"mode":4,"attributes":{"POSITION":28,"NORMAL":29,"TEXCOORD_0":30},"indices":31,"material":3}]},{"primitives":[{"mode":4,"attributes":{"POSITION":32,"NORMAL":33,"TEXCOORD_0":34},"indices":35,"material":3}]},{"primitives":[{"mode":4,"attributes":{"POSITION":36,"NORMAL":37,"TEXCOORD_0":38},"indices":39,"material":3}]},{"primitives":[{"mode":4,"attributes":{"POSITION":40,"NORMAL":41,"TEXCOORD_0":42},"indices":43,"material":3}]},{"primitives":[{"mode":4,"attributes":{"POSITION":44,"NORMAL":45,"TEXCOORD_0":46},"indices":47,"material":3}]},{"primitives":[{"mode":4,"attributes":{"POSITION":48,"NORMAL":49,"TEXCOORD_0":50},"indices":51,"material":3}]},{"primitives":[{"mode":4,"attributes":{"POSITION":52,"NORMAL":53,"TEXCOORD_0":54},"indices":55,"material":3}]},{"primitives":[{"mode":4,"attributes":{"POSITION":56,"NORMAL":57,"TEXCOORD_0":58},"indices":59,"material":3}]}]}